<svg width="114" height="32" viewBox="0 0 114 32" fill="none" xmlns="http://www.w3.org/2000/svg">
<g clip-path="url(#clip0_4455_25)">
<path d="M8.13117 4.24198C5.48311 5.68168 4.01431 8.30552 4.03844 10.9918C1.62261 12.3321 0 14.8055 0 17.6366C0 20.516 1.6769 23.0263 4.1621 24.3495C4.18924 26.9904 5.65201 29.5489 8.25483 30.9631C10.9029 32.4028 14.0516 32.2892 16.5127 30.9262C18.9526 32.2239 22.038 32.3119 24.6438 30.8949C27.2919 29.4552 28.7607 26.8314 28.7366 24.1451C31.1524 22.8048 32.772 20.3314 32.772 17.5003C32.772 14.6209 31.0951 12.1106 28.6099 10.7874C28.5827 8.1465 27.12 5.58797 24.5172 4.17383L16.395 17.5741L8.13117 4.24198ZM16.389 17.5798C16.389 17.5798 16.383 17.577 16.38 17.5741C16.38 17.5713 16.38 17.5684 16.38 17.5628C16.383 17.5628 16.386 17.5599 16.389 17.5571C16.392 17.5571 16.395 17.5599 16.3981 17.5628C16.3981 17.5656 16.3981 17.5684 16.3981 17.5741C16.395 17.5741 16.392 17.577 16.389 17.5798Z" fill="#926D62"/>
<path d="M10.6013 4.93548L16.38 14.2836L22.1225 4.83326C23.6305 2.3514 21.2056 -0.633067 18.2771 0.116601C17.5773 0.295498 16.9018 0.562425 16.2714 0.914542C15.7074 0.613539 15.1072 0.377848 14.4859 0.210309C11.5302 -0.584793 9.05711 2.43375 10.6043 4.93548H10.6013Z" fill="#926D62"/>
</g>
<g clip-path="url(#clip1_4455_25)">
<path d="M48.8732 28.3135C47.7638 28.0823 47.3059 27.7616 47.3059 26.9544C47.3059 26.2231 47.9537 25.7402 48.9737 25.7402C49.8784 25.7402 50.4815 26.1093 50.6564 26.8164C50.6639 26.8475 50.6713 26.8854 50.6713 26.9096C50.6713 27.0648 50.5485 27.1545 50.3884 27.1545C50.2544 27.1545 50.1464 27.1027 50.1129 26.9544C49.9863 26.4094 49.6252 26.1783 48.9849 26.1783C48.3111 26.1783 47.8643 26.4301 47.8643 26.9544C47.8643 27.4787 48.2143 27.6788 49.0854 27.8478L49.3237 27.8995C50.4293 28.1375 50.8426 28.5066 50.8426 29.3379C50.8426 30.1278 50.1278 30.6659 49.0407 30.6659C47.8606 30.6659 47.3171 30.0899 47.1905 29.5345C47.1756 29.4724 47.1644 29.3897 47.1644 29.3586C47.1644 29.1965 47.291 29.1206 47.4548 29.1206C47.5963 29.1206 47.7117 29.1654 47.7377 29.3345C47.8122 29.9105 48.285 30.2278 49.0407 30.2278C49.7965 30.2278 50.2916 29.8967 50.2916 29.3379C50.2916 28.7791 49.9826 28.5446 49.1152 28.3617L48.8806 28.31L48.8732 28.3135Z" fill="#926D62"/>
<path d="M56.4863 28.2899V30.3733C56.4863 30.5561 56.3523 30.6286 56.2034 30.6286C56.047 30.6286 55.9205 30.5527 55.9205 30.3733V26.0444C55.9205 25.8685 56.047 25.7822 56.2034 25.7822C56.3598 25.7822 56.4863 25.8685 56.4863 26.0444V27.8484H59.4162V26.0444C59.4162 25.8685 59.5428 25.7822 59.6917 25.7822C59.8406 25.7822 59.9821 25.8685 59.9821 26.0444V30.3733C59.9821 30.5561 59.8406 30.6286 59.6917 30.6286C59.5428 30.6286 59.4162 30.5527 59.4162 30.3733V28.2899H56.4863Z" fill="#926D62"/>
<path d="M65.8939 30.3733C65.8939 30.5561 65.7524 30.6286 65.6035 30.6286C65.4546 30.6286 65.3206 30.5527 65.3206 30.3733V26.0444C65.3206 25.8685 65.4471 25.7822 65.6035 25.7822C65.7598 25.7822 65.8939 25.8685 65.8939 26.0444V30.3733Z" fill="#926D62"/>
<path d="M75.2902 30.259C75.2902 30.5212 75.2232 30.6281 75.0185 30.6281C74.8025 30.6281 74.7206 30.535 74.5196 30.259L72.4199 27.4375C72.1705 27.1063 71.9658 26.7545 71.7238 26.3854C71.7498 26.7786 71.7573 27.2064 71.7573 27.6134L71.7759 30.3729C71.7759 30.5557 71.6493 30.6281 71.493 30.6281C71.3366 30.6281 71.2212 30.5522 71.2212 30.3729V26.144C71.2212 25.899 71.3217 25.7818 71.5525 25.7818C71.8019 25.7818 71.8913 25.899 72.0812 26.144L74.2292 29.0276C74.4451 29.3139 74.6425 29.6726 74.7951 29.9658C74.769 29.5968 74.7467 29.1759 74.7467 28.7689L74.7318 26.0405C74.7318 25.8646 74.8547 25.7783 75.0036 25.7783C75.1525 25.7783 75.2865 25.8646 75.2865 26.0405V30.259H75.2902Z" fill="#926D62"/>
<path d="M82.1067 28.3135C80.9973 28.0823 80.5394 27.7616 80.5394 26.9544C80.5394 26.2231 81.1872 25.7402 82.2072 25.7402C83.1119 25.7402 83.715 26.1093 83.8899 26.8164C83.8974 26.8475 83.9048 26.8854 83.9048 26.9096C83.9048 27.0648 83.782 27.1545 83.6219 27.1545C83.4879 27.1545 83.3799 27.1027 83.3464 26.9544C83.2198 26.4094 82.8587 26.1783 82.2184 26.1783C81.5446 26.1783 81.0978 26.4301 81.0978 26.9544C81.0978 27.4787 81.4478 27.6788 82.3189 27.8478L82.5572 27.8995C83.6666 28.1375 84.0761 28.5066 84.0761 29.3379C84.0761 30.1278 83.3613 30.6659 82.2742 30.6659C81.0941 30.6659 80.5506 30.0899 80.424 29.5345C80.4091 29.4724 80.3979 29.3897 80.3979 29.3586C80.3979 29.1965 80.5245 29.1206 80.6883 29.1206C80.8298 29.1206 80.9452 29.1654 80.9713 29.3345C81.0457 29.9105 81.5185 30.2278 82.2742 30.2278C83.03 30.2278 83.5251 29.8967 83.5251 29.3379C83.5251 28.7791 83.2161 28.5446 82.3487 28.3617L82.1142 28.31L82.1067 28.3135Z" fill="#926D62"/>
<path d="M89.7198 28.2899V30.3733C89.7198 30.5561 89.5858 30.6286 89.4369 30.6286C89.2805 30.6286 89.1539 30.5527 89.1539 30.3733V26.0444C89.1539 25.8685 89.2805 25.7822 89.4369 25.7822C89.5932 25.7822 89.7198 25.8685 89.7198 26.0444V27.8484H92.6497V26.0444C92.6497 25.8685 92.7762 25.7822 92.9251 25.7822C93.074 25.7822 93.2155 25.8685 93.2155 26.0444V30.3733C93.2155 30.5561 93.074 30.6286 92.9251 30.6286C92.7762 30.6286 92.6497 30.5527 92.6497 30.3733V28.2899H89.7198Z" fill="#926D62"/>
<path d="M98.6508 30.4803C98.6099 30.5872 98.5168 30.632 98.4163 30.632C98.2748 30.632 98.1259 30.563 98.1259 30.4078C98.1259 30.3699 98.1334 30.3216 98.1594 30.2698L100.017 26.0823C100.099 25.8823 100.192 25.7822 100.389 25.7822C100.605 25.7822 100.706 25.8823 100.788 26.0823L102.604 30.2629C102.623 30.3147 102.638 30.3561 102.638 30.394C102.638 30.5389 102.496 30.6251 102.348 30.6251C102.232 30.6251 102.124 30.5734 102.083 30.4734L101.517 29.104H99.2353L98.6546 30.4803H98.6508ZM101.346 28.6831L100.602 26.8998C100.546 26.7687 100.453 26.5376 100.378 26.3376C100.319 26.5376 100.222 26.7687 100.17 26.8998L99.414 28.6831H101.346Z" fill="#926D62"/>
<path d="M111.606 30.259C111.606 30.5212 111.539 30.6281 111.334 30.6281C111.119 30.6281 111.037 30.535 110.836 30.259L108.736 27.4375C108.486 27.1063 108.282 26.7545 108.04 26.3854C108.066 26.7786 108.073 27.2064 108.073 27.6134L108.092 30.3729C108.092 30.5557 107.965 30.6281 107.809 30.6281C107.653 30.6281 107.537 30.5522 107.537 30.3729V26.144C107.537 25.899 107.638 25.7818 107.868 25.7818C108.118 25.7818 108.207 25.899 108.397 26.144L110.545 29.0276C110.761 29.3139 110.958 29.6726 111.111 29.9658C111.085 29.5968 111.063 29.1759 111.063 28.7689L111.048 26.0405C111.048 25.8646 111.171 25.7783 111.32 25.7783C111.468 25.7783 111.602 25.8646 111.602 26.0405V30.259H111.606Z" fill="#926D62"/>
<path d="M58.0089 5.01338C56.9293 5.01338 55.7566 5.07892 54.651 5.12376C54.651 5.55838 54.6063 7.08299 54.584 7.41068C56.6799 7.27961 58.236 7.21407 59.8555 7.14853C60.2166 7.14853 60.9127 7.03815 61.2515 6.93122C61.4079 6.88638 61.5456 6.86569 61.702 6.86569C62.1524 6.86569 62.7146 7.08299 63.232 7.47622C63.5261 7.69353 63.6378 7.80391 63.6378 8.02122C63.6378 8.30407 63.4145 8.3696 63.098 8.3696C62.9863 8.3696 62.9193 8.3696 62.7592 8.34891C61.7913 8.26267 60.708 8.19714 59.3789 8.19714H58.8838C58.5227 8.19714 58.0722 8.21783 57.5548 8.21783C57.8042 8.41445 57.9829 8.63176 58.0946 8.80767C58.1392 8.89391 58.1616 8.95944 58.1616 9.02498C58.1616 9.13536 58.0946 9.24229 57.9122 9.37337C57.7111 9.54583 57.5064 9.83213 57.2793 10.0908C56.8512 10.591 56.49 10.9842 56.0619 11.3981C57.0745 11.3326 57.8638 11.2671 58.3812 11.2015C58.6977 11.1567 58.8987 11.0911 59.0811 11.0291C59.2375 10.9842 59.4422 10.9428 59.5762 10.9428C59.982 10.9428 60.7266 11.2705 60.9946 11.5085C61.1063 11.6189 61.218 11.7914 61.218 11.9673C61.218 12.295 60.9016 12.3157 60.1384 12.3157H59.4162C58.0424 12.3157 56.4416 12.3605 54.301 12.5123L54.435 12.5778C54.7962 12.7744 54.8855 12.8814 54.8855 13.078C54.8855 13.1884 54.8632 13.2539 54.7962 13.3815C54.6845 13.5988 54.5951 14.0783 54.5951 14.5784V14.9061C55.496 14.8406 56.3746 14.7751 57.1639 14.7095C57.6367 14.6647 57.793 14.644 57.9308 14.5784C58.1318 14.5129 58.4259 14.4474 58.653 14.4474C59.1034 14.4474 59.6433 14.6854 59.982 14.9717C60.1831 15.1441 60.2761 15.3201 60.2761 15.4925C60.2761 15.6891 59.982 15.7754 59.7363 15.7754C59.4422 15.7754 58.9471 15.7547 58.3403 15.7547H57.8228C56.9219 15.7547 55.7715 15.7995 54.6026 15.8651C54.6026 17.062 54.6249 18.1968 54.6249 19.2834C54.6249 20.3699 54.4462 21.1564 53.9697 21.1564C53.4932 21.1564 53.3145 20.3285 53.3145 18.935C53.3145 17.7588 53.3368 16.824 53.3368 15.972C51.6243 16.1031 50.3176 16.2548 49.1896 16.3859C49.0333 16.4066 48.8285 16.4308 48.6945 16.4308C48.5381 16.4308 48.445 16.3859 48.3557 16.3204C48.0616 16.0582 47.7489 15.7098 47.7489 15.6029C47.7489 15.5167 47.8159 15.4718 48.0206 15.4511C50.2506 15.2787 51.9631 15.1476 53.3368 15.0165C53.3368 14.5164 53.3145 14.0369 53.2921 13.4919C53.2921 13.1435 53.2028 12.8607 53.0911 12.5985C51.6281 12.7089 49.8225 12.8814 48.1807 13.0573C48.0244 13.078 47.8196 13.1021 47.6409 13.1021C47.4846 13.1021 47.3692 13.0814 47.2351 12.971C46.9187 12.733 46.5576 12.3191 46.5576 12.2087C46.5576 12.1432 46.6023 12.1225 46.7363 12.0984C47.842 12.0121 49.3274 11.8811 50.9952 11.75C50.5447 10.7255 50.0719 9.92181 49.7778 9.48375C49.5991 9.1802 49.4614 8.98359 49.305 8.78698C48.5828 8.85251 47.909 8.93875 47.2761 9.00429C46.5315 9.09052 45.7907 9.17675 45.5413 9.2216C45.4296 9.24229 45.3402 9.24229 45.2695 9.24229C45.0908 9.24229 44.9754 9.19745 44.8414 9.09052C44.4579 8.80767 44.1638 8.45929 44.1638 8.32821C44.1638 8.24198 44.2532 8.17644 44.3425 8.17644C45.1988 8.1316 46.2114 8.04536 47.4287 7.93843C48.6461 7.82806 50.2246 7.72113 52.9496 7.52451L53.3108 7.50382C53.3108 6.89328 53.3108 5.63082 53.2884 5.21689C52.1604 5.30313 51.1925 5.38936 49.9304 5.52044C49.7518 5.54113 49.547 5.56528 49.48 5.56528C49.346 5.56528 49.1636 5.47904 49.0519 5.39281C48.6908 5.10996 48.3967 4.78227 48.3967 4.67534C48.3967 4.58911 48.4637 4.54427 48.6461 4.54427C49.1859 4.52357 49.7034 4.49943 50.0198 4.47873C51.0324 4.41319 52.1827 4.34765 53.2624 4.26142C53.2624 3.89234 53.2624 3.56465 53.24 3.23696C53.24 2.71266 53.173 2.25734 52.9459 1.88481C52.9012 1.77443 52.8789 1.71235 52.8789 1.6675C52.8789 1.55713 52.9683 1.4502 53.106 1.4502C53.4224 1.4502 54.3457 1.73304 54.7962 2.01589C54.9525 2.10212 55.0233 2.2332 55.0233 2.36427C55.0233 2.45051 54.9786 2.58158 54.9116 2.69196C54.7999 2.88858 54.7105 3.19212 54.7105 3.58535C54.7105 3.76126 54.6882 3.95443 54.6882 4.17519C55.161 4.15449 55.6115 4.10965 55.9949 4.08895C56.5124 4.04411 56.9405 4.00272 57.3016 3.85095C57.4803 3.78541 57.7074 3.74057 57.8861 3.74057C58.2249 3.74057 58.5636 3.85095 59.0811 4.17519C59.3045 4.30626 59.4199 4.47873 59.4199 4.65465C59.4199 4.85126 59.2859 4.95819 59.1258 4.98234C59.0141 5.02718 58.8317 5.02718 58.586 5.02718H58.0015L58.0089 5.01338ZM51.4084 9.63207C51.5424 9.98045 51.7025 10.7221 51.9035 11.6775C52.3317 11.6568 52.7598 11.612 53.2102 11.5913C53.9548 11.5465 54.651 11.5051 55.2838 11.4602C55.712 10.6979 56.1178 9.84938 56.4119 9.10777C56.5459 8.75938 56.6352 8.49723 56.6613 8.25922C55.4439 8.30407 54.0032 8.3696 52.5141 8.50068C51.6355 8.56622 50.8686 8.63176 50.1501 8.69729C50.7346 8.9146 51.2558 9.17675 51.4121 9.63207H51.4084Z" fill="#926D62"/>
<path d="M79.0093 16.2308C79.0093 15.6202 78.987 15.534 78.9423 15.2512C76.9357 15.3822 74.9329 15.5789 72.9263 15.8824C72.0477 16.0135 71.5079 16.1204 71.0797 16.2101C71.0127 16.2308 70.8303 16.2549 70.7633 16.2549C70.5846 16.2549 70.4469 16.2101 70.3352 16.1445C70.0187 15.9721 69.4789 15.4926 69.4789 15.3374C69.4789 15.227 69.5683 15.1856 69.6576 15.1856C70.8973 15.0339 71.4148 14.989 72.9039 14.8372C74.2553 14.7062 76.4183 14.4889 78.6259 14.3129C78.3094 13.7231 78.0637 13.4851 77.6356 13.2022C77.5239 13.116 77.4793 13.0056 77.4793 12.9401C77.4793 12.8539 77.5463 12.7883 77.658 12.7883C77.7696 12.7883 78.1084 12.8746 78.4472 13.0712C79.4151 12.4192 80.0033 11.9398 80.7888 11.1326C79.6608 11.3051 78.8269 11.4362 78.0414 11.5914C77.1181 11.788 76.4629 11.9191 75.3163 12.2019C75.2046 12.2226 75.1153 12.2468 75.0445 12.2468C74.9329 12.2468 74.7951 12.2019 74.6611 12.1157C74.3223 11.8984 73.9835 11.4638 73.9835 11.3741C73.9835 11.2844 74.0729 11.2637 74.2553 11.243C74.6388 11.1982 75.2009 11.1119 76.0125 11.005C76.9804 10.8739 77.6803 10.767 78.4695 10.7015C79.3258 10.5911 79.7986 10.5048 80.6548 10.3738C80.8558 10.3531 81.0829 10.2427 81.1723 10.1772C81.2616 10.1116 81.4217 10.0668 81.5111 10.0668C81.6451 10.0668 81.8052 10.1116 82.0062 10.2186C82.3226 10.391 82.5907 10.6118 82.7731 10.8049C82.8848 10.9153 82.9294 11.0223 82.9294 11.1326C82.9294 11.2844 82.8401 11.4155 82.6577 11.481C82.2966 11.6328 82.0955 11.7639 81.7791 11.9398C80.7665 12.4641 79.7725 12.9849 78.8939 13.354C79.2104 13.5713 79.4784 13.8783 79.6832 14.2267C82.2742 14.0301 83.5363 14.0749 84.7313 14.0094C85.1147 13.9887 85.6099 13.899 85.9486 13.7921C86.105 13.7472 86.2428 13.7058 86.4214 13.7058C86.6709 13.7058 87.434 13.9025 88.0223 14.4026C88.2717 14.6199 88.3834 14.7717 88.3834 15.0994C88.3834 15.2719 88.2493 15.3615 88.0446 15.3615C87.9106 15.3615 87.7728 15.3408 87.5941 15.3167C86.3544 15.0994 84.869 15.0787 83.2012 15.0787C82.2556 15.0787 81.5111 15.0787 80.0927 15.1649C80.2044 15.534 80.2267 15.9721 80.2267 16.4929V16.7965C80.2267 18.5832 79.7092 20.2148 78.6929 21.0012C78.4919 21.1323 78.3541 21.1979 78.1978 21.1979C78.0861 21.1979 77.9707 21.153 77.859 21.0668C77.3192 20.608 76.9134 20.1941 76.0795 19.2145C76.0125 19.1282 75.9901 19.0834 75.9901 19.0386C75.9901 18.973 76.0348 18.9523 76.1018 18.9523C76.1688 18.9523 76.2582 18.973 76.3736 18.9972C76.9357 19.1489 77.5239 19.2145 78.0191 19.2145C78.2201 19.2145 78.3132 19.1489 78.4249 18.9972C78.719 18.5625 79.0093 17.5588 79.0093 16.4274V16.2308ZM72.137 5.27562C72.003 5.27562 71.8653 5.23078 71.6866 5.09971C71.3701 4.83755 71.009 4.44778 71.009 4.3374C71.009 4.25116 71.076 4.20632 71.2584 4.20632C71.8206 4.20632 72.4758 4.18563 72.9709 4.14078C74.4117 3.98901 76.2135 3.83724 77.9521 3.70617C77.9521 3.44401 77.9521 3.18531 77.9297 2.87832C77.885 2.37816 77.7734 2.05047 77.5686 1.70209C77.5016 1.61586 77.5016 1.57101 77.5016 1.52962C77.5016 1.41924 77.5909 1.33301 77.7287 1.33301C78.0005 1.33301 78.8567 1.55032 79.4635 1.87801C79.6869 1.98839 79.78 2.09532 79.78 2.22639C79.78 2.29193 79.7353 2.37816 79.6906 2.4437C79.4412 2.81278 79.3518 3.05424 79.3072 3.61993C80.4352 3.5337 81.4924 3.46816 82.3487 3.40262C82.9778 3.35778 83.4544 3.27155 83.7894 3.16462C84.0128 3.09908 84.2846 3.05424 84.4446 3.05424C84.8504 3.05424 85.4126 3.27155 85.8183 3.513C85.9747 3.59924 86.2018 3.86139 86.2018 4.058C86.2018 4.23047 86.0678 4.42708 85.863 4.42708C85.6359 4.42708 85.1408 4.40638 84.7127 4.40638C81.1313 4.42708 77.3006 4.66854 73.6262 5.10315C72.9933 5.16869 72.4535 5.25493 72.2078 5.27907H72.1408L72.137 5.27562ZM75.3163 10.0461C75.0892 10.0461 74.7765 9.89431 74.6164 9.19754C74.5271 8.76292 74.4154 8.23862 74.2553 7.69362C74.0989 7.12793 74.0059 6.88647 73.6262 6.43116C73.5815 6.36562 73.5591 6.32078 73.5591 6.27939C73.5591 6.16901 73.6932 6.10347 73.8086 6.10347C74.0319 6.10347 74.4824 6.21385 74.7988 6.32078C77.0511 6.08277 80.0927 5.84132 81.5371 5.77578C82.0769 5.75508 82.1216 5.51363 82.4157 5.51363C82.6875 5.51363 82.7992 5.55847 83.1156 5.71024C83.6777 6.01378 84.0835 6.34147 84.0835 6.51739C84.0835 6.714 84.0165 6.7554 83.8118 6.91062C83.6554 7.04169 83.54 7.12793 83.3166 7.52115C83.1603 7.7833 82.9778 8.04546 82.8438 8.28346C83.0449 8.43523 83.2049 8.63185 83.2049 8.82846C83.2049 9.06646 83.0262 9.15615 82.438 9.15615C80.4538 9.17684 78.1791 9.33207 75.8152 9.63561C75.7705 9.89776 75.6141 10.0495 75.32 10.0495L75.3163 10.0461ZM75.495 7.2797C75.562 7.69362 75.6514 8.28001 75.7444 8.82501C77.5463 8.6077 79.7092 8.43178 81.1053 8.32485C81.3324 8.32485 81.5334 8.28001 81.6674 8.23862C81.8461 7.64878 81.9615 7.08309 82.0285 6.62777C80.2044 6.62777 77.725 6.82438 75.4727 7.10723L75.495 7.2797Z" fill="#926D62"/>
<path d="M98.6136 3.44408C98.9301 3.44408 99.3135 3.44408 100.032 3.39924C103.185 3.20263 106.32 2.94048 109.179 2.78871C109.763 2.76801 110.013 2.67833 110.125 2.59209C110.214 2.52656 110.326 2.50586 110.419 2.50586C110.757 2.50586 111.409 2.87494 112.042 3.31301C112.269 3.46478 112.358 3.61655 112.358 3.77177C112.358 3.96839 112.247 4.09946 112.086 4.20639C111.885 4.35816 111.77 4.46854 111.681 4.59962C111.387 5.09978 111.163 5.47231 110.869 5.92762C111.096 6.0587 111.253 6.18977 111.253 6.40708C111.253 6.71063 110.891 6.821 110.579 6.821C109.79 6.821 108.688 6.8417 107.809 6.88654C105.151 7.01762 102.783 7.16939 100.013 7.43154C99.764 9.95647 99.2242 11.8295 98.7737 13.1368C98.0962 14.9649 97.1729 17.1449 94.8759 18.8213C94.7866 18.8869 94.7196 18.9076 94.6265 18.9076C94.5334 18.9076 94.4702 18.8213 94.4702 18.7109C94.4702 18.6454 94.5148 18.5799 94.5818 18.4936C96.272 16.5999 96.9682 14.7028 97.5564 12.8091C98.0068 11.3293 98.6397 8.47325 98.7067 4.9687C98.7067 4.77209 98.7067 4.62032 98.662 4.50994C98.595 4.48924 98.5057 4.4444 98.3903 4.37886C98.0962 4.18225 97.6904 3.66139 97.6904 3.57171C97.6904 3.48203 97.7797 3.44064 97.9845 3.44064H98.6136V3.44408ZM102.195 16.8828C102.039 16.8828 101.968 16.8621 101.856 16.7724C101.495 16.4896 101.156 16.0549 101.156 15.9239C101.156 15.879 101.223 15.8376 101.406 15.8376C102.24 15.8376 102.846 15.7928 103.747 15.7272C104.153 15.6824 104.805 15.641 105.505 15.5962C105.505 15.1167 105.46 14.244 105.393 13.8956C105.348 13.699 105.281 13.4817 105.143 13.2437C104.488 13.3541 103.814 13.461 103.092 13.5714C102.575 13.6576 102.281 13.7232 102.035 13.8094C101.856 13.8749 101.785 13.8956 101.696 13.8956C101.54 13.8956 101.335 13.7439 101.179 13.5472C101.022 13.3299 100.907 13.0471 100.907 12.8953C100.907 12.7436 101.019 12.6573 101.156 12.6332C101.834 12.5021 101.923 12.4814 102.191 12.2399C102.619 11.826 103.159 11.2362 103.52 10.5394C103.632 10.3221 103.699 10.1703 103.721 10.0393C103.182 10.0841 102.593 10.1496 101.715 10.2566C101.603 10.2773 101.421 10.3014 101.376 10.3014C101.287 10.3014 101.175 10.2359 101.082 10.1496C100.858 9.88748 100.497 9.47356 100.497 9.34248C100.497 9.27695 100.542 9.27695 100.769 9.25625C101.759 9.21141 102.482 9.17002 103.565 9.10448C104.782 9.01825 107.664 8.77679 109.041 8.64571C109.536 8.58018 109.92 8.53534 110.214 8.38356C110.393 8.29733 110.53 8.27318 110.664 8.27318C110.754 8.27318 110.843 8.27318 110.936 8.29388C111.208 8.33872 111.476 8.51119 111.859 8.75265C111.993 8.83888 112.131 9.0148 112.131 9.23211C112.131 9.42872 111.859 9.53565 111.454 9.55979C110.824 9.55979 110.192 9.58049 109.83 9.60464C108.367 9.69087 106.54 9.80125 105.143 9.90818C105.277 10.0393 105.344 10.1496 105.344 10.2359C105.344 10.3876 105.073 10.5843 104.916 10.736C104.105 11.4776 103.249 12.2606 102.91 12.5435C104.894 12.3676 107.37 12.064 109.265 11.7363C108.993 11.4086 108.725 11.1051 108.431 10.7567C108.364 10.6705 108.319 10.5843 108.319 10.5187C108.319 10.4532 108.364 10.4083 108.475 10.4083C108.542 10.4083 108.632 10.429 108.747 10.4532C109.376 10.6256 110.076 10.974 110.616 11.3673C111.156 11.7363 111.383 12.2606 111.383 12.609C111.383 13.0436 111.089 13.2851 110.776 13.2851C110.62 13.2851 110.437 13.1989 110.303 13.0471C110.147 12.8505 109.942 12.5883 109.741 12.3296C108.568 12.6125 107.377 12.8746 106.182 13.0712C106.882 13.3334 107.128 13.53 107.128 13.7473C107.128 13.8991 107.105 14.0095 106.994 14.1819C106.882 14.3544 106.815 14.6614 106.77 15.4892C107.332 15.4444 107.965 15.3789 108.393 15.3168C108.933 15.2305 109.183 15.1857 109.451 15.0339C109.607 14.9477 109.812 14.9235 110.151 14.9235C110.534 14.9235 110.895 15.0546 111.096 15.2064C111.39 15.4237 111.48 15.5341 111.48 15.8169C111.48 16.0135 111.23 16.1653 110.78 16.186C110.195 16.2067 109.54 16.2515 109.201 16.2722C108.412 16.3171 107.422 16.3826 106.7 16.4447C106.677 17.1622 106.655 17.6865 106.61 18.6454C107.984 18.5592 109.201 18.5143 110.307 18.5143C110.69 18.4936 111.23 18.4281 111.569 18.3177C111.725 18.2729 111.885 18.2522 112.064 18.2522C112.425 18.2522 113.237 18.5557 113.71 18.9282C113.937 19.1007 114.004 19.2318 114.004 19.4732C114.004 19.7147 113.825 19.7768 113.509 19.7768C113.397 19.7768 113.352 19.7768 113.103 19.7561C111.684 19.625 109.294 19.5836 108.822 19.5836C107.943 19.5836 106.837 19.6285 105.668 19.694C103.755 19.8044 102.739 19.8906 100.687 20.1735C100.531 20.1942 100.214 20.2597 99.965 20.3045C99.831 20.3252 99.7156 20.3494 99.6039 20.3494C99.4922 20.3494 99.3805 20.3045 99.2205 20.2183C98.703 19.9148 98.3642 19.5664 98.3642 19.456C98.3642 19.3698 98.4536 19.3249 98.5652 19.3042C99.3545 19.218 100.121 19.1525 101.201 19.0421C102.731 18.8903 104.421 18.7799 105.482 18.7144C105.482 18.1935 105.505 17.6692 105.505 16.5378C104.447 16.6241 103.364 16.7345 102.307 16.8862H102.195V16.8828ZM109.812 3.73038C106.614 3.94769 103.345 4.12361 99.831 4.44785C100.032 4.64446 100.17 4.88247 100.17 5.14462C100.17 5.34123 100.125 5.62408 100.08 6.45192C102.56 6.23461 104.7 6.08284 106.819 5.90693C107.854 5.82069 109.116 5.75515 109.615 5.75515C109.909 5.12392 110.199 4.23054 110.199 3.96839C110.199 3.79592 110.11 3.73038 109.905 3.73038H109.816H109.812Z" fill="#926D62"/>
</g>
<defs>
<clipPath id="clip0_4455_25">
<rect width="32.775" height="32" fill="white"/>
</clipPath>
<clipPath id="clip1_4455_25">
<rect width="69.825" height="29.3333" fill="white" transform="translate(44.175 1.33301)"/>
</clipPath>
</defs>
</svg>
