<svg width="435" height="247" viewBox="0 0 435 247" fill="none" xmlns="http://www.w3.org/2000/svg">
<mask id="mask0_2639_744" style="mask-type:luminance" maskUnits="userSpaceOnUse" x="0" y="0" width="435" height="247">
<path d="M435 0H0V247H435V0Z" fill="white"/>
</mask>
<g mask="url(#mask0_2639_744)">
<mask id="mask1_2639_744" style="mask-type:luminance" maskUnits="userSpaceOnUse" x="0" y="-250" width="554" height="497">
<path d="M554 -250H0V247H554V-250Z" fill="white"/>
</mask>
<g mask="url(#mask1_2639_744)">
<path d="M437.264 -2.35315C439.776 -6.83821 441.751 -11.6585 443.115 -16.747C447.415 -32.78 445.209 -49.5207 436.907 -63.8923C428.604 -78.2639 415.204 -88.5453 399.165 -92.8441C393.709 -94.3043 388.172 -94.9972 382.672 -94.9674C371.82 -113.168 351.936 -125.394 329.249 -125.394C306.562 -125.394 285.97 -112.721 275.252 -93.984C254.041 -93.7083 233.493 -82.6074 222.135 -62.9461C210.598 -42.9645 211.47 -19.1833 222.329 -0.54274C219.817 3.94232 217.842 8.76266 216.478 13.8587C212.178 29.8917 214.384 46.6324 222.687 61.004C230.989 75.3755 244.39 85.6569 260.428 89.9557C265.787 91.3862 271.22 92.1013 276.616 92.1013C276.72 92.1013 276.825 92.1013 276.929 92.1013C287.781 110.295 307.658 122.513 330.344 122.513C353.031 122.513 373.624 109.848 384.334 91.1031C405.545 90.8274 426.1 79.719 437.451 60.0652C448.988 40.0835 448.116 16.3024 437.257 -2.33823L437.264 -2.35315ZM398.979 -92.1288C414.824 -87.8822 428.067 -77.7275 436.266 -63.5273C444.464 -49.327 446.648 -32.78 442.399 -16.9482C441.088 -12.0608 439.217 -7.42677 436.832 -3.10561C431.585 -11.8298 424.132 -19.3844 414.712 -24.8231C404.896 -30.4853 394.164 -33.1451 383.581 -33.1153C388.559 -42.0481 391.414 -52.3295 391.414 -63.259C391.414 -74.1886 388.381 -85.1107 383.104 -94.2373C388.403 -94.2298 393.732 -93.5295 398.986 -92.1214L398.979 -92.1288ZM276.079 -93.2538C286.491 -93.2538 297.037 -90.609 306.681 -85.0436C316.154 -79.5751 323.599 -71.9461 328.794 -63.1398C326.327 -58.7069 324.389 -53.9388 323.04 -48.9173C319.232 -34.7171 320.544 -19.9581 326.655 -6.78605C318.323 -18.1999 306.45 -26.3802 292.603 -30.083C287.214 -31.5284 281.744 -32.2212 276.31 -32.2063C270.937 -41.3255 267.836 -51.9346 267.836 -63.2665C267.836 -74.5984 270.698 -84.3806 275.692 -93.2538C275.819 -93.2538 275.945 -93.2538 276.072 -93.2538H276.079ZM390.661 -63.2665C390.661 -52.3146 387.762 -42.0332 382.716 -33.1227C363.346 -32.8023 344.55 -23.4523 332.834 -6.80096C341.054 -25.3893 339.407 -46.3395 329.659 -63.1398C334.988 -72.5644 342.754 -80.4468 352.375 -85.9973C361.617 -91.3317 371.85 -94.1106 382.239 -94.2373C387.583 -85.1405 390.661 -74.5611 390.661 -63.2665ZM382.284 -32.3702C371.827 -14.5045 352.614 -2.3755 330.568 -1.90613C341.695 -21.0011 361.632 -31.8785 382.284 -32.3702ZM329.785 -2.34569C321.684 -16.5013 319.538 -32.9588 323.763 -48.7236C325.053 -53.5439 326.901 -58.1109 329.234 -62.3799C339.504 -44.3951 340.406 -21.6791 329.785 -2.34569ZM292.416 -29.3603C307.836 -25.2329 320.775 -15.4879 329.018 -1.88377C306.89 -1.96572 287.482 -13.8042 276.743 -31.4613C281.975 -31.4315 287.229 -30.7461 292.416 -29.3603ZM323.652 -1.39951C303.454 0.77597 286.141 12.6591 276.46 29.4743C265.854 29.5788 255.099 26.9488 245.269 21.2792C235.826 15.833 228.396 8.22623 223.201 -0.54274C228.53 -9.89283 236.251 -17.7081 245.82 -23.2287C255.122 -28.6004 265.429 -31.3645 275.886 -31.4613C285.843 -14.8324 303.357 -3.22482 323.652 -1.39951ZM329.033 -0.9823C317.905 18.1128 297.969 28.9902 277.317 29.4819C287.773 11.6161 306.987 -0.512932 329.033 -0.9823ZM326.76 3.92743C318.561 22.4935 320.201 43.4138 329.92 60.1918C324.71 69.4227 317.056 77.4244 307.225 83.094C297.984 88.4284 287.743 91.1999 277.354 91.3191C272.018 82.2224 268.94 71.6429 268.94 60.3633C268.94 49.0835 271.839 39.1299 276.884 30.2195C296.247 29.899 315.036 20.5565 326.76 3.92743ZM329.815 -0.550171C340.793 18.6342 340.257 41.3278 330.352 59.4543C320.104 41.4694 319.202 18.7684 329.815 -0.550171ZM336.56 46.0215C340.369 31.8213 339.064 17.0697 332.953 3.89764C344.922 20.2436 363.823 29.2881 383.186 29.2881C383.216 29.2881 383.245 29.2881 383.275 29.2881C388.656 38.4147 391.764 49.0314 391.764 60.3707C391.764 71.7099 388.902 81.4698 383.916 90.3432C373.378 90.4102 362.69 87.7877 352.927 82.1479C343.454 76.6794 336.009 69.0502 330.814 60.244C333.281 55.8111 335.219 51.043 336.56 46.0215ZM330.575 -1.01208C352.696 -0.93013 372.096 10.8935 382.843 28.5357C362.139 28.4165 342.001 17.8446 330.575 -1.01208ZM335.956 -1.49637C356.154 -3.67184 373.467 -15.555 383.149 -32.3702C393.754 -32.4745 404.509 -29.8446 414.339 -24.1749C423.782 -18.7288 431.213 -11.1221 436.407 -2.35315C431.078 6.99695 423.357 14.8122 413.788 20.3329C404.3 25.8089 393.948 28.4538 383.708 28.5357C373.75 11.9142 356.243 0.321495 335.956 -1.49637ZM329.249 -124.649C351.511 -124.649 371.045 -112.744 381.814 -94.9599C371.44 -94.7662 361.229 -91.9649 351.995 -86.638C342.381 -81.0875 334.607 -73.2498 329.219 -63.8774C323.972 -72.6389 316.497 -80.2309 307.039 -85.6918C297.291 -91.3168 286.633 -93.9765 276.109 -93.984C286.745 -112.304 306.577 -124.657 329.241 -124.657L329.249 -124.649ZM222.791 -62.5736C233.933 -81.8624 254.026 -92.8143 274.827 -93.2315C269.908 -84.3359 267.099 -74.1215 267.099 -63.259C267.099 -52.3966 270.154 -41.3403 275.461 -32.1914C265.019 -32.0275 254.742 -29.2262 245.448 -23.862C235.893 -18.3488 228.157 -10.5707 222.776 -1.27284C212.245 -19.6377 211.47 -42.9571 222.798 -62.5662L222.791 -62.5736ZM260.63 89.233C244.785 84.9864 231.541 74.8316 223.342 60.6315C215.144 46.4313 212.96 29.8842 217.209 14.0524C218.52 9.16498 220.391 4.5309 222.776 0.209747C228.023 8.93402 235.476 16.4885 244.896 21.9272C254.66 27.5596 265.332 30.2418 275.871 30.2418C275.923 30.2418 275.975 30.2418 276.02 30.2418C271.041 39.1747 268.194 49.4411 268.194 60.3707C268.194 71.3002 271.228 82.2149 276.497 91.334C271.205 91.3266 265.876 90.6411 260.622 89.233H260.63ZM330.352 121.761C308.09 121.761 288.556 109.855 277.786 92.0791C288.153 91.8853 298.364 89.0766 307.598 83.7497C317.212 78.1992 324.986 70.3615 330.374 60.9816C335.621 69.7431 343.096 77.335 352.554 82.796C362.303 88.421 372.953 91.0956 383.476 91.1104C372.834 109.416 353.016 121.761 330.352 121.761ZM436.817 59.6777C425.675 78.9666 405.574 89.9185 384.773 90.3432C389.692 81.4474 392.509 71.2332 392.509 60.3707C392.509 49.5081 389.446 38.4297 384.132 29.2733C394.365 29.1168 404.695 26.4422 414.16 20.9736C423.715 15.4604 431.451 7.68239 436.832 -1.61555C447.363 16.7494 448.138 40.0686 436.81 59.6777H436.817Z" fill="#F0E1DA"/>
<path d="M223.432 -0.475739C225.943 -4.9608 227.919 -9.78113 229.282 -14.8697C233.583 -30.9027 231.377 -47.6434 223.074 -62.015C214.772 -76.3865 201.371 -86.6679 185.332 -90.9667C179.877 -92.427 174.339 -93.1199 168.839 -93.0901C157.988 -111.291 138.103 -123.517 115.416 -123.517C92.7295 -123.517 72.137 -110.844 61.4197 -92.1066C40.2086 -91.831 19.6608 -80.7301 8.3025 -61.0688C-3.23467 -41.0872 -2.36267 -17.3059 8.49627 1.33467C5.98463 5.81973 4.0096 10.64 2.64571 15.736C-1.65464 31.769 0.551432 48.5098 8.85402 62.8813C17.1566 77.2529 30.557 87.5343 46.5957 91.8331C51.9544 93.2635 57.3876 93.9787 62.7835 93.9787C62.8879 93.9787 62.9922 93.9787 63.0966 93.9787C73.9481 112.172 93.8251 124.391 116.512 124.391C139.199 124.391 159.791 111.725 170.501 92.9804C191.712 92.7047 212.267 81.5964 223.618 61.9426C235.155 41.961 234.283 18.1797 223.424 -0.460846L223.432 -0.475739ZM185.139 -90.2515C200.984 -86.0048 214.227 -75.8501 222.426 -61.6499C230.624 -47.4497 232.808 -30.9027 228.559 -15.0708C227.248 -10.1835 225.377 -5.54938 222.992 -1.22822C217.745 -9.95248 210.292 -17.5071 200.872 -22.9458C191.056 -28.608 180.324 -31.2677 169.741 -31.2379C174.719 -40.1708 177.574 -50.4522 177.574 -61.3817C177.574 -72.3113 174.541 -83.2333 169.264 -92.3599C174.563 -92.3525 179.892 -91.6522 185.146 -90.2441L185.139 -90.2515ZM62.2395 -91.3765C72.6513 -91.3765 83.1972 -88.7316 92.8413 -83.1663C102.314 -77.6978 109.759 -70.0687 114.954 -61.2625C112.487 -56.8296 110.549 -52.0614 109.201 -47.0399C105.392 -32.8397 106.704 -18.0807 112.815 -4.90866C104.483 -16.3225 92.6102 -24.5029 78.7627 -28.2057C73.3742 -29.651 67.9037 -30.3439 62.4705 -30.329C57.0969 -39.4481 53.9965 -50.0573 53.9965 -61.3892C53.9965 -72.721 56.8585 -82.5032 61.8519 -91.3765C61.9786 -91.3765 62.1053 -91.3765 62.232 -91.3765H62.2395ZM176.821 -61.3892C176.821 -50.4373 173.922 -40.1559 168.876 -31.2454C149.506 -30.925 130.71 -21.5749 118.994 -4.92355C127.214 -23.512 125.567 -44.4621 115.819 -61.2625C121.148 -70.6871 128.914 -78.5695 138.535 -84.1199C147.777 -89.4543 158.01 -92.2333 168.399 -92.3599C173.743 -83.2631 176.821 -72.6838 176.821 -61.3892ZM168.451 -30.5003C157.995 -12.6346 138.781 -0.505547 116.735 -0.0361786C127.863 -19.1312 147.799 -30.0086 168.451 -30.5003ZM115.945 -0.468307C107.844 -14.6238 105.698 -31.0815 109.923 -46.8462C111.213 -51.6666 113.061 -56.2336 115.394 -60.5026C125.664 -42.5176 126.566 -19.8018 115.945 -0.468307ZM78.5763 -27.483C93.9965 -23.3555 106.935 -13.6106 115.178 -0.00639343C93.05 -0.0883484 73.6425 -11.9268 62.9028 -29.584C68.1348 -29.5542 73.3891 -28.8687 78.5763 -27.483ZM109.812 0.47789C89.6142 2.65337 72.301 14.5365 62.6196 31.3518C52.014 31.4561 41.2594 28.8262 31.429 23.1565C21.9861 17.7104 14.5555 10.1036 9.36082 1.33467C14.6897 -8.01542 22.4109 -15.8308 31.9805 -21.3514C41.2818 -26.7231 51.5892 -29.4871 62.0457 -29.584C72.0028 -12.955 89.5173 -1.34743 109.812 0.47789ZM115.193 0.88765C104.065 19.9827 84.1288 30.8601 63.4767 31.3518C73.9332 13.4861 93.1469 1.35702 115.193 0.88765ZM112.92 5.80482C104.721 24.3709 106.361 45.2912 116.08 62.0692C110.87 71.3001 103.216 79.3017 93.3854 84.9714C84.1437 90.3057 73.9033 93.0773 63.5139 93.1965C58.1776 84.0997 55.0996 73.5203 55.0996 62.2406C55.0996 50.9609 57.9988 41.0073 63.0444 32.0968C82.4072 31.7765 101.196 22.4338 112.92 5.80482ZM115.983 1.32721C126.961 20.5116 126.424 43.2052 116.519 61.3317C106.271 43.3467 105.37 20.6458 115.983 1.32721ZM122.72 47.8914C126.529 33.6912 125.224 18.9396 119.113 5.76756C131.082 22.1134 149.983 31.1581 169.346 31.1581C169.376 31.1581 169.405 31.1581 169.435 31.1581C174.816 40.2847 177.924 50.9013 177.924 62.2406C177.924 73.5799 175.062 83.3398 170.076 92.213C159.538 92.2801 148.85 89.6576 139.087 84.0177C129.614 78.5492 122.169 70.9202 116.974 62.1139C119.441 57.681 121.379 52.9129 122.72 47.8914ZM116.735 0.865303C138.856 0.947258 158.256 12.7708 169.003 30.4131C148.299 30.2939 128.161 19.7219 116.735 0.865303ZM122.116 0.373581C142.314 -1.8019 159.627 -13.6851 169.309 -30.5003C179.914 -30.6046 190.669 -27.9747 200.499 -22.305C209.942 -16.8589 217.373 -9.25217 222.567 -0.4832C217.238 8.86688 209.517 16.6822 199.948 22.2028C190.46 27.6788 180.108 30.3236 169.868 30.4056C159.91 13.7841 142.403 2.19145 122.116 0.373581ZM115.416 -122.779C137.678 -122.779 157.212 -110.874 167.982 -93.0901C157.607 -92.8963 147.397 -90.095 138.163 -84.7681C128.548 -79.2177 120.775 -71.38 115.386 -62.0075C110.14 -70.769 102.664 -78.3609 93.2065 -83.8219C83.458 -89.4469 72.8003 -92.1066 62.2767 -92.1141C72.9121 -110.434 92.7444 -122.787 115.409 -122.787L115.416 -122.779ZM8.9509 -60.6963C20.0931 -79.985 40.1862 -90.9369 60.9874 -91.3541C56.0684 -82.4585 53.2587 -72.2442 53.2587 -61.3817C53.2587 -50.5192 56.3144 -39.463 61.6209 -30.3141C51.1793 -30.1502 40.9017 -27.3489 31.6079 -21.9847C22.0532 -16.4715 14.317 -8.6934 8.936 0.604538C-1.59502 -17.7604 -2.37012 -41.0797 8.95836 -60.6888L8.9509 -60.6963ZM46.7895 91.1104C30.9446 86.8638 17.7007 76.709 9.50242 62.5088C1.30418 48.3086 -0.879534 31.7616 3.36865 15.9297C4.68036 11.0424 6.55105 6.40829 8.936 2.08713C14.1829 10.8114 21.6358 18.366 31.0563 23.8047C40.8197 29.4371 51.4923 32.1192 62.0308 32.1192C62.083 32.1192 62.1351 32.1192 62.1799 32.1192C57.2013 41.052 54.3543 51.3185 54.3543 62.248C54.3543 73.1776 57.3876 84.0923 62.6568 93.2114C57.3653 93.2039 52.0364 92.5185 46.7821 91.1104H46.7895ZM116.512 123.631C94.2499 123.631 74.7157 111.725 63.9462 93.949C74.3133 93.7553 84.5238 90.9465 93.758 85.6196C103.372 80.0691 111.146 72.2314 116.534 62.8515C121.781 71.6131 129.256 79.2049 138.714 84.6659C148.463 90.2909 159.113 92.9655 169.636 92.9804C158.994 111.286 139.176 123.631 116.512 123.631ZM222.977 61.5552C211.835 80.8439 191.734 91.7958 170.933 92.2205C175.852 83.3249 178.669 73.1105 178.669 62.248C178.669 51.3856 175.606 40.307 170.292 31.1506C180.525 30.9942 190.855 28.3195 200.32 22.851C209.875 17.3378 217.611 9.55977 222.992 0.261833C233.523 18.6267 234.298 41.9461 222.97 61.5552H222.977Z" fill="#F0E1DA"/>
<path d="M545.496 120.189C548.008 115.704 549.983 110.883 551.347 105.795C555.647 89.762 553.441 73.0212 545.139 58.6497C536.836 44.2781 523.436 33.9967 507.397 29.6979C501.941 28.2377 496.404 27.5448 490.903 27.5746C480.052 9.37358 460.167 -2.85229 437.481 -2.85229C414.794 -2.85229 394.201 9.82062 383.484 28.558C362.273 28.8337 341.725 39.9346 330.367 59.5958C318.83 79.5775 319.702 103.359 330.561 121.999C328.049 126.484 326.074 131.305 324.71 136.401C320.41 152.434 322.616 169.174 330.918 183.546C339.221 197.918 352.621 208.199 368.66 212.498C374.019 213.928 379.452 214.643 384.848 214.643C384.952 214.643 385.057 214.643 385.161 214.643C396.013 232.837 415.89 245.055 438.576 245.055C461.263 245.055 481.856 232.39 492.565 213.645C513.777 213.369 534.332 202.261 545.683 182.607C557.22 162.626 556.348 138.844 545.489 120.204L545.496 120.189ZM507.203 30.4132C523.048 34.6598 536.292 44.8145 544.49 59.0147C552.688 73.2149 554.872 89.762 550.624 105.594C549.312 110.481 547.442 115.115 545.057 119.436C539.81 110.712 532.357 103.158 522.936 97.7189C513.121 92.0567 502.388 89.3969 491.805 89.4267C496.784 80.4939 499.638 70.2125 499.638 59.2829C499.638 48.3534 496.605 37.4313 491.328 28.3047C496.627 28.3122 501.956 29.0125 507.211 30.4206L507.203 30.4132ZM384.304 29.2807C394.716 29.2807 405.262 31.9256 414.906 37.4909C424.378 42.9594 431.824 50.5885 437.019 59.3947C434.552 63.8276 432.614 68.5958 431.265 73.6173C427.457 87.8175 428.768 102.576 434.88 115.749C426.547 104.335 414.675 96.1543 400.827 92.4515C395.439 91.0062 389.968 90.3133 384.535 90.3282C379.161 81.2091 376.061 70.5999 376.061 59.268C376.061 47.9362 378.923 38.154 383.916 29.2807C384.043 29.2807 384.17 29.2807 384.296 29.2807H384.304ZM498.893 59.2755C498.893 70.2274 495.994 80.5087 490.948 89.4193C471.578 89.7396 452.782 99.0897 441.066 115.741C449.286 97.1527 447.639 76.2025 437.891 59.4021C443.219 49.9776 450.985 42.0952 460.607 36.5447C469.849 31.2103 480.082 28.4314 490.471 28.3047C495.815 37.4015 498.893 47.9809 498.893 59.2755ZM490.516 90.1643C480.059 108.03 460.846 120.159 438.8 120.628C449.927 101.533 469.864 90.656 490.516 90.1643ZM438.017 120.196C429.916 106.041 427.77 89.5832 431.995 73.8184C433.285 68.9981 435.133 64.4311 437.466 60.1621C447.736 78.147 448.638 100.863 438.017 120.196ZM400.648 93.1817C416.068 97.3091 429.007 107.054 437.25 120.658C415.122 120.576 395.714 108.738 384.975 91.0807C390.207 91.1105 395.461 91.7959 400.648 93.1817ZM431.884 121.143C411.686 123.318 394.373 135.201 384.691 152.016C374.086 152.121 363.331 149.491 353.501 143.821C344.058 138.375 336.627 130.768 331.433 121.999C336.762 112.649 344.483 104.834 354.052 99.3132C363.354 93.9416 373.661 91.1775 384.118 91.0807C394.075 107.71 411.589 119.317 431.884 121.143ZM437.265 121.552C426.137 140.647 406.201 151.525 385.549 152.016C396.005 134.151 415.219 122.022 437.265 121.552ZM434.991 126.469C426.793 145.036 428.433 165.956 438.152 182.734C432.942 191.965 425.288 199.966 415.457 205.636C406.216 210.97 395.975 213.742 385.586 213.861C380.25 204.764 377.171 194.185 377.171 182.905C377.171 171.626 380.071 161.672 385.116 152.761C404.479 152.441 423.268 143.098 434.991 126.469ZM438.047 121.992C449.025 141.176 448.489 163.87 438.584 181.996C428.336 164.011 427.434 141.31 438.047 121.992ZM444.792 168.556C448.601 154.356 447.296 139.604 441.185 126.432C453.154 142.778 472.055 151.823 491.418 151.823C491.448 151.823 491.477 151.823 491.507 151.823C496.888 160.949 499.996 171.566 499.996 182.905C499.996 194.245 497.134 204.004 492.148 212.878C481.61 212.945 470.922 210.322 461.159 204.682C451.686 199.214 444.241 191.585 439.046 182.779C441.513 178.346 443.451 173.578 444.792 168.556ZM438.807 121.53C460.928 121.612 480.328 133.435 491.075 151.078C470.371 150.959 450.233 140.387 438.807 121.53ZM444.188 121.038C464.386 118.863 481.699 106.98 491.38 90.1643C501.986 90.06 512.741 92.6899 522.571 98.3596C532.014 103.806 539.445 111.412 544.639 120.181C539.31 129.532 531.589 137.347 522.019 142.868C512.532 148.343 502.18 150.988 491.939 151.07C481.982 134.449 464.475 122.856 444.188 121.038ZM437.481 -2.11473C459.743 -2.11473 479.277 9.7908 490.046 27.5746C479.672 27.7683 469.461 30.5696 460.227 35.8965C450.613 41.447 442.839 49.2847 437.451 58.6571C432.204 49.8956 424.729 42.3038 415.271 36.8427C405.522 31.2178 394.865 28.558 384.341 28.5506C394.977 10.2304 414.809 -2.12218 437.473 -2.12218L437.481 -2.11473ZM331.023 59.9684C342.165 40.6796 362.258 29.7277 383.059 29.3105C378.14 38.2061 375.331 48.4205 375.331 59.2829C375.331 70.1454 378.386 81.2016 383.693 90.3506C373.251 90.5145 362.974 93.3158 353.68 98.68C344.125 104.193 336.389 111.971 331.008 121.269C320.477 102.904 319.702 79.5849 331.03 59.9758L331.023 59.9684ZM368.861 211.775C353.016 207.528 339.773 197.374 331.574 183.173C323.376 168.973 321.192 152.426 325.441 136.594C326.752 131.707 328.623 127.073 331.008 122.752C336.255 131.476 343.708 139.031 353.128 144.469C362.892 150.102 373.564 152.784 384.103 152.784C384.155 152.784 384.207 152.784 384.252 152.784C379.273 161.717 376.426 171.983 376.426 182.913C376.426 193.842 379.46 204.757 384.729 213.876C379.437 213.869 374.108 213.183 368.854 211.775H368.861ZM438.584 244.295C416.322 244.295 396.788 232.39 386.018 214.614C396.385 214.42 406.596 211.611 415.83 206.284C425.444 200.734 433.218 192.896 438.606 183.516C443.853 192.278 451.328 199.869 460.786 205.331C470.535 210.955 481.185 213.63 491.708 213.645C481.066 231.95 461.248 244.295 438.584 244.295ZM545.042 182.22C533.9 201.509 513.799 212.46 492.998 212.885C497.917 203.99 500.734 193.775 500.734 182.913C500.734 172.05 497.671 160.972 492.357 151.815C502.59 151.659 512.919 148.984 522.385 143.516C531.939 138.002 539.676 130.224 545.057 120.926C555.588 139.291 556.363 162.611 545.034 182.22H545.042Z" fill="#F0E1DA"/>
<path d="M331.597 122.141C334.108 117.656 336.083 112.836 337.447 107.747C341.748 91.7141 339.541 74.9734 331.239 60.6018C322.936 46.2302 309.536 35.9489 293.497 31.6501C288.042 30.1898 282.504 29.4969 277.004 29.5267C266.152 11.3257 246.268 -0.900146 223.581 -0.900146C200.894 -0.900146 180.302 11.7728 169.584 30.5102C148.373 30.7858 127.826 41.8868 116.467 61.548C104.93 81.5296 105.802 105.311 116.661 123.951C114.149 128.437 112.174 133.257 110.81 138.353C106.51 154.386 108.716 171.127 117.019 185.498C125.321 199.87 138.722 210.151 154.761 214.45C160.119 215.88 165.552 216.596 170.948 216.596C171.053 216.596 171.157 216.596 171.261 216.596C182.113 234.789 201.99 247.008 224.677 247.008C247.363 247.008 267.956 234.342 278.666 215.597C299.877 215.322 320.432 204.213 331.783 184.559C343.32 164.578 342.448 140.797 331.589 122.156L331.597 122.141ZM293.303 32.3728C309.148 36.6194 322.392 46.7741 330.59 60.9743C338.789 75.1745 340.972 91.7216 336.724 107.553C335.413 112.441 333.542 117.075 331.157 121.396C325.91 112.672 318.457 105.117 309.037 99.6785C299.221 94.0163 288.489 91.3565 277.906 91.3863C282.884 82.4535 285.739 72.1721 285.739 61.2425C285.739 50.313 282.705 39.3909 277.429 30.2643C282.728 30.2718 288.057 30.9721 293.311 32.3802L293.303 32.3728ZM170.404 31.2403C180.816 31.2403 191.362 33.8852 201.006 39.4505C210.479 44.919 217.924 52.5481 223.119 61.3543C220.652 65.7872 218.714 70.5554 217.365 75.5769C213.557 89.7771 214.869 104.536 220.98 117.708C212.648 106.294 200.775 98.1139 186.927 94.4111C181.539 92.9658 176.069 92.2729 170.635 92.2878C165.262 83.1687 162.161 72.5595 162.161 61.2276C162.161 49.8958 165.023 40.1136 170.017 31.2403C170.143 31.2403 170.27 31.2403 170.397 31.2403H170.404ZM284.986 61.2351C284.986 72.187 282.087 82.4684 277.041 91.3789C257.671 91.6992 238.875 101.049 227.158 117.701C235.379 99.1123 233.732 78.1621 223.984 61.3618C229.312 51.9372 237.078 44.0548 246.7 38.5043C255.942 33.1699 266.175 30.391 276.564 30.2643C281.908 39.3611 284.986 49.9405 284.986 61.2351ZM276.616 92.1239C266.16 109.99 246.946 122.119 224.9 122.588C236.027 103.493 255.964 92.6156 276.616 92.1239ZM224.11 122.156C216.009 108 213.862 91.5428 218.088 75.778C219.378 70.9577 221.226 66.3907 223.559 62.1217C233.829 80.1066 234.731 102.822 224.11 122.156ZM186.741 95.1413C202.161 99.2687 215.1 109.014 223.343 122.618C201.215 122.536 181.807 110.697 171.068 93.0403C176.3 93.0701 181.554 93.7555 186.741 95.1413ZM217.976 123.102C197.779 125.278 180.466 137.161 170.784 153.976C160.179 154.08 149.424 151.45 139.594 145.781C130.151 140.335 122.72 132.728 117.526 123.959C122.854 114.609 130.576 106.793 140.145 101.273C149.447 95.9012 159.754 93.1371 170.211 93.0403C180.168 109.669 197.682 121.277 217.976 123.102ZM223.357 123.512C212.23 142.607 192.294 153.484 171.641 153.976C182.098 136.11 201.312 123.981 223.357 123.512ZM221.084 128.429C212.886 146.995 214.526 167.916 224.244 184.694C219.035 193.924 211.381 201.926 201.55 207.596C192.308 212.93 182.068 215.702 171.679 215.821C166.342 206.724 163.264 196.145 163.264 184.865C163.264 173.585 166.164 163.632 171.209 154.721C190.572 154.401 209.361 145.058 221.084 128.429ZM224.147 123.944C235.126 143.128 234.589 165.822 224.684 183.948C214.436 165.964 213.534 143.263 224.147 123.944ZM230.885 170.516C234.693 156.315 233.389 141.564 227.278 128.392C239.247 144.738 258.148 153.782 277.511 153.782C277.54 153.782 277.57 153.782 277.6 153.782C282.981 162.909 286.089 173.526 286.089 184.865C286.089 196.204 283.227 205.964 278.241 214.837C267.703 214.904 257.015 212.282 247.252 206.642C237.779 201.173 230.333 193.544 225.139 184.738C227.606 180.305 229.543 175.537 230.885 170.516ZM224.9 123.482C247.021 123.564 266.421 135.388 277.168 153.03C256.463 152.911 236.326 142.339 224.9 123.482ZM230.281 122.998C250.479 120.822 267.792 108.939 277.473 92.1239C288.079 92.0196 298.833 94.6495 308.664 100.319C318.107 105.765 325.537 113.372 330.732 122.141C325.403 131.491 317.682 139.306 308.112 144.827C298.625 150.303 288.273 152.948 278.032 153.03C268.075 136.408 250.568 124.816 230.281 122.998ZM223.581 -0.15512C245.843 -0.15512 265.377 11.7504 276.147 29.5342C265.772 29.7279 255.562 32.5292 246.327 37.8561C236.713 43.4066 228.94 51.2443 223.551 60.6167C218.304 51.8552 210.829 44.2634 201.371 38.8023C191.623 33.1774 180.965 30.5176 170.442 30.5102C181.077 12.19 200.909 -0.162578 223.574 -0.162578L223.581 -0.15512ZM117.116 61.9205C128.258 42.6318 148.351 31.6799 169.152 31.2627C164.233 40.1583 161.423 50.3726 161.423 61.2351C161.423 72.0976 164.479 83.1538 169.786 92.3027C159.344 92.4666 149.066 95.2679 139.773 100.632C130.218 106.145 122.482 113.923 117.101 123.221C106.57 104.856 105.795 81.5371 117.123 61.928L117.116 61.9205ZM154.954 213.735C139.109 209.488 125.865 199.333 117.667 185.133C109.469 170.933 107.285 154.386 111.533 138.554C112.845 133.667 114.716 129.033 117.101 124.711C122.348 133.436 129.801 140.99 139.221 146.429C148.985 152.061 159.657 154.743 170.196 154.743C170.248 154.743 170.3 154.743 170.345 154.743C165.366 163.676 162.519 173.943 162.519 184.872C162.519 195.802 165.552 206.716 170.822 215.836C165.53 215.828 160.201 215.143 154.947 213.735H154.954ZM224.677 246.255C202.415 246.255 182.881 234.35 172.111 216.573C182.478 216.379 192.689 213.571 201.923 208.244C211.537 202.693 219.311 194.856 224.699 185.476C229.946 194.237 237.421 201.829 246.879 207.29C256.627 212.915 267.278 215.59 277.801 215.605C267.158 233.91 247.341 246.255 224.677 246.255ZM331.142 184.179C320 203.468 299.899 214.42 279.098 214.845C284.017 205.949 286.834 195.735 286.834 184.872C286.834 174.01 283.771 162.931 278.457 153.775C288.69 153.618 299.02 150.944 308.485 145.475C318.04 139.962 325.776 132.184 331.157 122.886C341.688 141.251 342.463 164.57 331.135 184.179H331.142Z" fill="#F0E1DA"/>
</g>
</g>
</svg>
