<svg width="160" height="48" viewBox="0 0 160 48" fill="none" xmlns="http://www.w3.org/2000/svg">
<g clip-path="url(#clip0_2973_1161)">
<path d="M11.4122 6.3637C7.69559 8.52325 5.63412 12.459 5.66799 16.4885C2.27735 18.4989 0 22.2089 0 26.4556C0 30.7747 2.35355 34.5401 5.84154 36.525C5.87964 40.4863 7.93264 44.3241 11.5857 46.4453C15.3023 48.6049 19.7215 48.4345 23.1757 46.39C26.6002 48.3365 30.9305 48.4686 34.5878 46.3431C38.3044 44.1836 40.3659 40.2478 40.332 36.2183C43.7226 34.2079 45.9958 30.4979 45.9958 26.2512C45.9958 21.9321 43.6422 18.1667 40.1542 16.1818C40.1161 12.2205 38.0631 8.38269 34.41 6.26147L23.0106 26.3619L11.4122 6.3637ZM23.0021 26.3704C23.0021 26.3704 22.9937 26.3662 22.9894 26.3619C22.9894 26.3577 22.9894 26.3534 22.9894 26.3449C22.9937 26.3449 22.9979 26.3406 23.0021 26.3364C23.0063 26.3364 23.0106 26.3406 23.0148 26.3449C23.0148 26.3491 23.0148 26.3534 23.0148 26.3619C23.0106 26.3619 23.0063 26.3662 23.0021 26.3704Z" fill="#F3F4F5"/>
<path d="M14.8792 7.40298L22.9896 21.4252L31.0492 7.24964C33.1657 3.52686 29.7624 -0.949844 25.6522 0.174657C24.6701 0.443004 23.7219 0.843394 22.8372 1.37157C22.0457 0.920065 21.2033 0.566528 20.3313 0.315219C16.183 -0.877433 12.7119 3.65039 14.8834 7.40298H14.8792Z" fill="#F3F4F5"/>
</g>
<g clip-path="url(#clip1_2973_1161)">
<path d="M68.5936 42.4714C67.0365 42.1247 66.3939 41.6436 66.3939 40.4328C66.3939 39.3359 67.303 38.6116 68.7347 38.6116C70.0043 38.6116 70.8508 39.1652 71.0964 40.2259C71.1068 40.2724 71.1173 40.3294 71.1173 40.3656C71.1173 40.5984 70.9448 40.7329 70.7202 40.7329C70.5321 40.7329 70.3805 40.6553 70.3335 40.4328C70.1559 39.6153 69.649 39.2687 68.7503 39.2687C67.8046 39.2687 67.1776 39.6464 67.1776 40.4328C67.1776 41.2193 67.6688 41.5194 68.8914 41.7729L69.2258 41.8505C70.7776 42.2075 71.3576 42.7611 71.3576 44.0081C71.3576 45.1929 70.3544 46.0001 68.8287 46.0001C67.1724 46.0001 66.4095 45.136 66.2319 44.303C66.211 44.2099 66.1953 44.0857 66.1953 44.0391C66.1953 43.796 66.373 43.6821 66.6029 43.6821C66.8014 43.6821 66.9634 43.7494 67 44.0029C67.1045 44.867 67.768 45.343 68.8287 45.343C69.8894 45.343 70.5843 44.8463 70.5843 44.0081C70.5843 43.1699 70.1506 42.8181 68.9332 42.5438L68.604 42.4662L68.5936 42.4714Z" fill="#F3F4F5"/>
<path d="M79.2786 42.4351V45.5602C79.2786 45.8345 79.0905 45.9431 78.8815 45.9431C78.662 45.9431 78.4844 45.8293 78.4844 45.5602V39.0668C78.4844 38.8029 78.662 38.6736 78.8815 38.6736C79.1009 38.6736 79.2786 38.8029 79.2786 39.0668V41.7728H83.3906V39.0668C83.3906 38.8029 83.5683 38.6736 83.7773 38.6736C83.9863 38.6736 84.1848 38.8029 84.1848 39.0668V45.5602C84.1848 45.8345 83.9863 45.9431 83.7773 45.9431C83.5683 45.9431 83.3906 45.8293 83.3906 45.5602V42.4351H79.2786Z" fill="#F3F4F5"/>
<path d="M92.4824 45.5602C92.4824 45.8345 92.2838 45.9431 92.0748 45.9431C91.8658 45.9431 91.6777 45.8293 91.6777 45.5602V39.0668C91.6777 38.8029 91.8554 38.6736 92.0748 38.6736C92.2943 38.6736 92.4824 38.8029 92.4824 39.0668V45.5602Z" fill="#F3F4F5"/>
<path d="M105.671 45.3895C105.671 45.7828 105.577 45.9431 105.289 45.9431C104.986 45.9431 104.871 45.8035 104.589 45.3895L101.642 41.1572C101.292 40.6605 101.005 40.1327 100.665 39.5791C100.702 40.1689 100.712 40.8105 100.712 41.421L100.738 45.5603C100.738 45.8345 100.561 45.9431 100.341 45.9431C100.122 45.9431 99.96 45.8293 99.96 45.5603V39.2169C99.96 38.8495 100.101 38.6736 100.425 38.6736C100.775 38.6736 100.9 38.8495 101.167 39.2169L104.182 43.5424C104.485 43.9718 104.762 44.5099 104.976 44.9497C104.939 44.3961 104.908 43.7649 104.908 43.1543L104.887 39.0617C104.887 38.7978 105.06 38.6685 105.269 38.6685C105.478 38.6685 105.666 38.7978 105.666 39.0617V45.3895H105.671Z" fill="#F3F4F5"/>
<path d="M115.237 42.4714C113.68 42.1247 113.037 41.6436 113.037 40.4328C113.037 39.3359 113.947 38.6116 115.378 38.6116C116.648 38.6116 117.494 39.1652 117.74 40.2259C117.75 40.2724 117.761 40.3294 117.761 40.3656C117.761 40.5984 117.588 40.7329 117.364 40.7329C117.176 40.7329 117.024 40.6553 116.977 40.4328C116.799 39.6153 116.293 39.2687 115.394 39.2687C114.448 39.2687 113.821 39.6464 113.821 40.4328C113.821 41.2193 114.312 41.5194 115.535 41.7729L115.869 41.8505C117.426 42.2075 118.001 42.7611 118.001 44.0081C118.001 45.1929 116.998 46.0001 115.472 46.0001C113.816 46.0001 113.053 45.136 112.875 44.303C112.855 44.2099 112.839 44.0857 112.839 44.0391C112.839 43.796 113.017 43.6821 113.246 43.6821C113.445 43.6821 113.607 43.7494 113.644 44.0029C113.748 44.867 114.412 45.343 115.472 45.343C116.533 45.343 117.228 44.8463 117.228 44.0081C117.228 43.1699 116.794 42.8181 115.577 42.5438L115.248 42.4662L115.237 42.4714Z" fill="#F3F4F5"/>
<path d="M125.922 42.4351V45.5602C125.922 45.8345 125.734 45.9431 125.525 45.9431C125.306 45.9431 125.128 45.8293 125.128 45.5602V39.0668C125.128 38.8029 125.306 38.6736 125.525 38.6736C125.744 38.6736 125.922 38.8029 125.922 39.0668V41.7728H130.034V39.0668C130.034 38.8029 130.212 38.6736 130.421 38.6736C130.63 38.6736 130.828 38.8029 130.828 39.0668V45.5602C130.828 45.8345 130.63 45.9431 130.421 45.9431C130.212 45.9431 130.034 45.8293 130.034 45.5602V42.4351H125.922Z" fill="#F3F4F5"/>
<path d="M138.457 45.7206C138.4 45.881 138.269 45.9483 138.128 45.9483C137.93 45.9483 137.721 45.8448 137.721 45.612C137.721 45.5551 137.731 45.4826 137.768 45.405L140.375 39.1237C140.49 38.8236 140.621 38.6736 140.898 38.6736C141.201 38.6736 141.342 38.8236 141.457 39.1237L144.006 45.3947C144.032 45.4723 144.053 45.5344 144.053 45.5913C144.053 45.8086 143.855 45.9379 143.646 45.9379C143.484 45.9379 143.332 45.8603 143.275 45.7103L142.481 43.6562H139.278L138.463 45.7206H138.457ZM142.24 43.025L141.195 40.35C141.117 40.1534 140.986 39.8067 140.882 39.5066C140.798 39.8067 140.662 40.1534 140.589 40.35L139.529 43.025H142.24Z" fill="#F3F4F5"/>
<path d="M156.641 45.3895C156.641 45.7828 156.547 45.9431 156.259 45.9431C155.956 45.9431 155.841 45.8035 155.559 45.3895L152.612 41.1572C152.262 40.6605 151.975 40.1327 151.635 39.5791C151.672 40.1689 151.682 40.8105 151.682 41.421L151.708 45.5603C151.708 45.8345 151.531 45.9431 151.311 45.9431C151.092 45.9431 150.93 45.8293 150.93 45.5603V39.2169C150.93 38.8495 151.071 38.6736 151.395 38.6736C151.745 38.6736 151.87 38.8495 152.137 39.2169L155.151 43.5424C155.455 43.9718 155.731 44.5099 155.946 44.9497C155.909 44.3961 155.878 43.7649 155.878 43.1543L155.857 39.0617C155.857 38.7978 156.029 38.6685 156.238 38.6685C156.447 38.6685 156.635 38.7978 156.635 39.0617V45.3895H156.641Z" fill="#F3F4F5"/>
<path d="M81.4161 7.5208C79.9009 7.5208 78.255 7.61911 76.7032 7.68637C76.7032 8.3383 76.6405 10.6252 76.6091 11.1168C79.5508 10.9201 81.7349 10.8218 84.0077 10.7235C84.5146 10.7235 85.4916 10.558 85.9671 10.3976C86.1866 10.3303 86.3799 10.2993 86.5993 10.2993C87.2316 10.2993 88.0205 10.6252 88.7468 11.2151C89.1596 11.541 89.3163 11.7066 89.3163 12.0326C89.3163 12.4568 89.0028 12.5551 88.5587 12.5551C88.402 12.5551 88.3079 12.5551 88.0832 12.5241C86.7247 12.3947 85.2043 12.2964 83.3389 12.2964H82.644C82.1372 12.2964 81.505 12.3275 80.7787 12.3275C81.1288 12.6224 81.3796 12.9484 81.5363 13.2122C81.599 13.3416 81.6304 13.4399 81.6304 13.5382C81.6304 13.7038 81.5363 13.8642 81.2803 14.0608C80.9981 14.3195 80.7108 14.7489 80.392 15.137C79.7912 15.8872 79.2843 16.4771 78.6835 17.0979C80.1047 16.9996 81.2124 16.9013 81.9386 16.803C82.3828 16.7358 82.6649 16.6375 82.9209 16.5443C83.1404 16.4771 83.4278 16.415 83.6159 16.415C84.1854 16.415 85.2304 16.9065 85.6066 17.2635C85.7633 17.4291 85.9201 17.6878 85.9201 17.9517C85.9201 18.4432 85.476 18.4742 84.4048 18.4742H83.3912C81.4632 18.4742 79.2164 18.5415 76.212 18.7692L76.4001 18.8675C76.907 19.1624 77.0324 19.3228 77.0324 19.6177C77.0324 19.7833 77.001 19.8816 76.907 20.073C76.7502 20.399 76.6248 21.1182 76.6248 21.8684V22.3599C77.8893 22.2616 79.1224 22.1633 80.2301 22.065C80.8936 21.9978 81.1131 21.9667 81.3064 21.8684C81.5886 21.7701 82.0013 21.6718 82.3201 21.6718C82.9523 21.6718 83.7099 22.0288 84.1854 22.4582C84.4675 22.7169 84.5982 22.9808 84.5982 23.2395C84.5982 23.5344 84.1854 23.6638 83.8405 23.6638C83.4278 23.6638 82.7328 23.6328 81.8812 23.6328H81.1549C79.8904 23.6328 78.2759 23.7 76.6353 23.7983C76.6353 25.5937 76.6666 27.296 76.6666 28.9258C76.6666 30.5556 76.4158 31.7353 75.747 31.7353C75.0782 31.7353 74.8274 30.4935 74.8274 28.4032C74.8274 26.6389 74.8588 25.2367 74.8588 23.9587C72.4553 24.1553 70.6213 24.383 69.0381 24.5796C68.8187 24.6106 68.5313 24.6469 68.3432 24.6469C68.1237 24.6469 67.9931 24.5796 67.8677 24.4813C67.4549 24.0881 67.016 23.5655 67.016 23.4051C67.016 23.2757 67.1101 23.2085 67.3975 23.1774C70.5272 22.9187 72.9307 22.7221 74.8588 22.5255C74.8588 21.7753 74.8274 21.0561 74.7961 20.2386C74.7961 19.716 74.6707 19.2917 74.5139 18.8985C72.4605 19.0641 69.9264 19.3228 67.6221 19.5867C67.4027 19.6177 67.1153 19.6539 66.8645 19.6539C66.6451 19.6539 66.4831 19.6229 66.295 19.4573C65.8509 19.1003 65.344 18.4794 65.344 18.3138C65.344 18.2155 65.4067 18.1845 65.5948 18.1483C67.1467 18.0189 69.2314 17.8223 71.5722 17.6257C70.94 16.089 70.2764 14.8835 69.8637 14.2264C69.6129 13.771 69.4195 13.4761 69.2001 13.1812C68.1864 13.2795 67.2407 13.4089 66.3525 13.5072C65.3075 13.6365 64.2677 13.7659 63.9176 13.8331C63.7609 13.8642 63.6355 13.8642 63.5362 13.8642C63.2854 13.8642 63.1234 13.7969 62.9353 13.6365C62.3971 13.2122 61.9844 12.6897 61.9844 12.4931C61.9844 12.3637 62.1098 12.2654 62.2352 12.2654C63.4369 12.1981 64.8581 12.0688 66.5667 11.9084C68.2753 11.7428 70.4907 11.5824 74.3154 11.2875L74.8222 11.2565C74.8222 10.3407 74.8222 8.44696 74.7908 7.82607C73.2077 7.95542 71.8492 8.08477 70.0779 8.28139C69.8271 8.31243 69.5397 8.34865 69.4457 8.34865C69.2576 8.34865 69.0015 8.2193 68.8448 8.08995C68.338 7.66568 67.9252 7.17414 67.9252 7.01375C67.9252 6.8844 68.0192 6.81714 68.2753 6.81714C69.0329 6.78609 69.7592 6.74987 70.2033 6.71883C71.6245 6.62052 73.239 6.52221 74.7543 6.39286C74.7543 5.83924 74.7543 5.34771 74.7229 4.85618C74.7229 4.06972 74.6289 3.38675 74.3101 2.82795C74.2474 2.66238 74.2161 2.56925 74.2161 2.50199C74.2161 2.33642 74.3415 2.17603 74.5348 2.17603C74.9789 2.17603 76.2747 2.6003 76.907 3.02457C77.1264 3.15392 77.2257 3.35053 77.2257 3.54714C77.2257 3.6765 77.163 3.87311 77.0689 4.03868C76.9122 4.3336 76.7868 4.78891 76.7868 5.37875C76.7868 5.64263 76.7554 5.93237 76.7554 6.26351C77.419 6.23247 78.0512 6.16521 78.5894 6.13416C79.3157 6.0669 79.9166 6.00481 80.4234 5.77715C80.6742 5.67885 80.9929 5.61158 81.2437 5.61158C81.7192 5.61158 82.1947 5.77715 82.9209 6.26351C83.2344 6.46013 83.3964 6.71883 83.3964 6.9827C83.3964 7.27762 83.2083 7.43802 82.9836 7.47424C82.8269 7.5415 82.5709 7.5415 82.226 7.5415H81.4057L81.4161 7.5208ZM72.1522 14.4488C72.3403 14.9714 72.565 16.0838 72.8471 17.517C73.448 17.486 74.0489 17.4187 74.6811 17.3877C75.7261 17.3204 76.7032 17.2583 77.5914 17.1911C78.1923 16.0476 78.7618 14.7748 79.1746 13.6624C79.3627 13.1398 79.4881 12.7466 79.5247 12.3896C77.8161 12.4568 75.794 12.5551 73.704 12.7518C72.4709 12.8501 71.3946 12.9484 70.3862 13.0467C71.2065 13.3726 71.938 13.7659 72.1574 14.4488H72.1522Z" fill="#F3F4F5"/>
<path d="M110.891 24.3467C110.891 23.4309 110.859 23.3015 110.797 22.8772C107.98 23.0738 105.169 23.3688 102.353 23.8241C101.12 24.0207 100.362 24.1811 99.7614 24.3156C99.6673 24.3467 99.4113 24.3829 99.3173 24.3829C99.0665 24.3829 98.8731 24.3156 98.7164 24.2173C98.2723 23.9586 97.5146 23.2394 97.5146 23.0066C97.5146 22.841 97.64 22.7789 97.7654 22.7789C99.5054 22.5513 100.232 22.484 102.322 22.2563C104.218 22.0597 107.254 21.7338 110.352 21.4699C109.908 20.5851 109.563 20.2281 108.963 19.8039C108.806 19.6745 108.743 19.5089 108.743 19.4106C108.743 19.2813 108.837 19.183 108.994 19.183C109.151 19.183 109.626 19.3123 110.102 19.6072C111.46 18.6293 112.286 17.9102 113.388 16.6994C111.805 16.9581 110.635 17.1547 109.532 17.3876C108.236 17.6825 107.317 17.8791 105.707 18.3034C105.551 18.3344 105.425 18.3706 105.326 18.3706C105.169 18.3706 104.976 18.3034 104.788 18.174C104.312 17.8481 103.837 17.1961 103.837 17.0616C103.837 16.9271 103.962 16.896 104.218 16.865C104.756 16.7977 105.545 16.6684 106.685 16.508C108.043 16.3114 109.025 16.151 110.133 16.0527C111.335 15.8871 111.998 15.7578 113.2 15.5611C113.482 15.5301 113.801 15.3645 113.926 15.2662C114.052 15.1679 114.276 15.1007 114.402 15.1007C114.59 15.1007 114.815 15.1679 115.097 15.3283C115.541 15.587 115.917 15.9182 116.173 16.2079C116.33 16.3735 116.393 16.5339 116.393 16.6994C116.393 16.9271 116.267 17.1237 116.011 17.222C115.504 17.4497 115.222 17.6463 114.778 17.9102C113.357 18.6966 111.962 19.4779 110.729 20.0315C111.173 20.3575 111.549 20.818 111.836 21.3405C115.473 21.0456 117.244 21.1129 118.921 21.0146C119.46 20.9835 120.155 20.849 120.63 20.6886C120.849 20.6214 121.043 20.5593 121.294 20.5593C121.644 20.5593 122.715 20.8542 123.54 21.6044C123.89 21.9304 124.047 22.158 124.047 22.6496C124.047 22.9083 123.859 23.0428 123.572 23.0428C123.384 23.0428 123.19 23.0118 122.939 22.9755C121.2 22.6496 119.115 22.6185 116.774 22.6185C115.447 22.6185 114.402 22.6185 112.411 22.7479C112.568 23.3015 112.599 23.9586 112.599 24.7399V25.1952C112.599 27.8754 111.873 30.3227 110.447 31.5023C110.164 31.699 109.971 31.7973 109.752 31.7973C109.595 31.7973 109.433 31.73 109.276 31.6007C108.518 30.9125 107.949 30.2916 106.779 28.8222C106.685 28.6928 106.653 28.6256 106.653 28.5583C106.653 28.46 106.716 28.429 106.81 28.429C106.904 28.429 107.029 28.46 107.191 28.4962C107.98 28.7239 108.806 28.8222 109.501 28.8222C109.783 28.8222 109.914 28.7239 110.07 28.4962C110.483 27.8443 110.891 26.3387 110.891 24.6416V24.3467ZM101.245 7.91392C101.057 7.91392 100.864 7.84666 100.613 7.65005C100.169 7.25682 99.6621 6.67215 99.6621 6.50658C99.6621 6.37723 99.7562 6.30997 100.012 6.30997C100.801 6.30997 101.721 6.27893 102.416 6.21167C104.438 5.98401 106.967 5.75635 109.407 5.55974C109.407 5.16651 109.407 4.77846 109.375 4.31797C109.313 3.56773 109.156 3.0762 108.869 2.55362C108.775 2.42427 108.775 2.35701 108.775 2.29492C108.775 2.12935 108.9 2 109.093 2C109.475 2 110.676 2.32596 111.528 2.8175C111.842 2.98307 111.972 3.14346 111.972 3.34008C111.972 3.43838 111.91 3.56773 111.847 3.66604C111.497 4.21966 111.371 4.58184 111.309 5.43039C112.892 5.30103 114.376 5.20273 115.577 5.10442C116.46 5.03716 117.129 4.90781 117.6 4.74741C117.913 4.64911 118.294 4.58184 118.519 4.58184C119.089 4.58184 119.878 4.90781 120.447 5.26999C120.667 5.39934 120.985 5.79257 120.985 6.08749C120.985 6.34619 120.797 6.64111 120.51 6.64111C120.191 6.64111 119.496 6.61007 118.895 6.61007C113.869 6.64111 108.492 7.00329 103.335 7.65522C102.447 7.75353 101.689 7.88288 101.345 7.9191H101.251L101.245 7.91392ZM105.707 15.0696C105.389 15.0696 104.95 14.842 104.725 13.7968C104.6 13.1449 104.443 12.3584 104.218 11.5409C103.999 10.6924 103.868 10.3302 103.335 9.64722C103.273 9.54892 103.241 9.48166 103.241 9.41957C103.241 9.254 103.429 9.15569 103.591 9.15569C103.905 9.15569 104.537 9.32126 104.981 9.48166C108.142 9.12465 112.411 8.76246 114.438 8.66416C115.196 8.63311 115.259 8.27093 115.672 8.27093C116.053 8.27093 116.21 8.33819 116.654 8.56585C117.443 9.02117 118.012 9.5127 118.012 9.77658C118.012 10.0715 117.918 10.1336 117.631 10.3664C117.411 10.563 117.249 10.6924 116.936 11.2822C116.717 11.6754 116.46 12.0687 116.272 12.4257C116.555 12.6533 116.779 12.9483 116.779 13.2432C116.779 13.6002 116.528 13.7347 115.703 13.7347C112.918 13.7658 109.725 13.9986 106.408 14.4539C106.345 14.8471 106.125 15.0748 105.713 15.0748L105.707 15.0696ZM105.958 10.92C106.052 11.5409 106.178 12.4205 106.308 13.238C108.837 12.912 111.873 12.6482 113.832 12.4878C114.151 12.4878 114.433 12.4205 114.621 12.3584C114.872 11.4737 115.034 10.6251 115.128 9.94214C112.568 9.94214 109.088 10.2371 105.927 10.6613L105.958 10.92Z" fill="#F3F4F5"/>
<path d="M138.405 5.16661C138.849 5.16661 139.388 5.16661 140.396 5.09935C144.822 4.80443 149.221 4.41121 153.234 4.18355C154.054 4.1525 154.404 4.01798 154.561 3.88863C154.686 3.79032 154.843 3.75928 154.974 3.75928C155.449 3.75928 156.364 4.3129 157.252 4.97C157.571 5.19766 157.696 5.42532 157.696 5.65815C157.696 5.95307 157.539 6.14968 157.315 6.31008C157.032 6.53773 156.87 6.7033 156.745 6.89992C156.332 7.65015 156.019 8.20895 155.606 8.89192C155.925 9.08853 156.144 9.28515 156.144 9.61111C156.144 10.0664 155.637 10.232 155.198 10.232C154.091 10.232 152.544 10.263 151.311 10.3303C147.58 10.5269 144.257 10.7546 140.37 11.1478C140.02 14.9352 139.262 17.7447 138.63 19.7057C137.679 22.4479 136.383 25.7179 133.159 28.2325C133.034 28.3308 132.94 28.3618 132.809 28.3618C132.679 28.3618 132.59 28.2325 132.59 28.0669C132.59 27.9686 132.653 27.8703 132.747 27.7409C135.119 24.9004 136.096 22.0547 136.921 19.2141C137.554 16.9945 138.442 12.7104 138.536 7.45354C138.536 7.15862 138.536 6.93096 138.473 6.76539C138.379 6.73435 138.254 6.66709 138.092 6.56878C137.679 6.27386 137.109 5.49258 137.109 5.35805C137.109 5.22353 137.235 5.16144 137.522 5.16144H138.405V5.16661ZM143.432 25.3247C143.212 25.3247 143.113 25.2936 142.956 25.1591C142.449 24.7348 141.974 24.0829 141.974 23.8863C141.974 23.819 142.068 23.7569 142.324 23.7569C143.494 23.7569 144.346 23.6897 145.611 23.5914C146.18 23.5241 147.094 23.462 148.077 23.3947C148.077 22.6755 148.014 21.3665 147.92 20.8439C147.857 20.549 147.763 20.2231 147.57 19.866C146.65 20.0316 145.705 20.192 144.691 20.3576C143.965 20.4869 143.552 20.5852 143.207 20.7146C142.956 20.8129 142.857 20.8439 142.732 20.8439C142.512 20.8439 142.225 20.6163 142.005 20.3214C141.786 19.9954 141.624 19.5711 141.624 19.3435C141.624 19.1158 141.781 18.9865 141.974 18.9502C142.925 18.7536 143.05 18.7226 143.426 18.3604C144.027 17.7395 144.785 16.8548 145.292 15.8096C145.449 15.4836 145.543 15.256 145.574 15.0594C144.816 15.1266 143.991 15.2249 142.758 15.3853C142.601 15.4164 142.345 15.4526 142.282 15.4526C142.157 15.4526 142 15.3543 141.869 15.2249C141.556 14.8317 141.049 14.2108 141.049 14.0142C141.049 13.9159 141.112 13.9159 141.431 13.8849C142.82 13.8176 143.834 13.7555 145.355 13.6572C147.063 13.5279 151.107 13.1657 153.04 12.9691C153.735 12.8708 154.274 12.8035 154.686 12.5758C154.937 12.4465 155.13 12.4103 155.319 12.4103C155.444 12.4103 155.569 12.4103 155.7 12.4413C156.081 12.5086 156.458 12.7673 156.996 13.1295C157.184 13.2588 157.377 13.5227 157.377 13.8486C157.377 14.1436 156.996 14.304 156.426 14.3402C155.543 14.3402 154.655 14.3712 154.148 14.4074C152.095 14.5368 149.529 14.7024 147.57 14.8628C147.758 15.0594 147.852 15.2249 147.852 15.3543C147.852 15.5819 147.471 15.8769 147.251 16.1045C146.112 17.2169 144.91 18.3914 144.435 18.8157C147.22 18.5518 150.694 18.0965 153.354 17.605C152.973 17.1135 152.596 16.6581 152.184 16.1356C152.09 16.0062 152.027 15.8769 152.027 15.7786C152.027 15.6803 152.09 15.613 152.246 15.613C152.34 15.613 152.466 15.644 152.628 15.6803C153.511 15.939 154.493 16.4615 155.251 17.0514C156.008 17.605 156.327 18.3914 156.327 18.914C156.327 19.566 155.914 19.9281 155.475 19.9281C155.256 19.9281 155 19.7988 154.812 19.5711C154.592 19.2762 154.305 18.883 154.023 18.4949C152.377 18.9192 150.705 19.3124 149.028 19.6073C150.01 20.0006 150.355 20.2955 150.355 20.6215C150.355 20.8491 150.323 21.0147 150.167 21.2734C150.01 21.5321 149.916 21.9926 149.853 23.2343C150.642 23.1671 151.53 23.0688 152.131 22.9756C152.889 22.8463 153.239 22.779 153.615 22.5514C153.835 22.422 154.122 22.3858 154.598 22.3858C155.136 22.3858 155.643 22.5824 155.925 22.8101C156.337 23.136 156.463 23.3016 156.463 23.7259C156.463 24.0208 156.113 24.2485 155.481 24.2795C154.66 24.3105 153.741 24.3778 153.265 24.4089C152.157 24.4761 150.768 24.5744 149.754 24.6676C149.723 25.7438 149.691 26.5302 149.629 27.9686C151.557 27.8392 153.265 27.772 154.817 27.772C155.355 27.7409 156.113 27.6426 156.588 27.4771C156.808 27.4098 157.032 27.3787 157.283 27.3787C157.79 27.3787 158.929 27.8341 159.593 28.3929C159.911 28.6516 160.005 28.8482 160.005 29.2104C160.005 29.5725 159.755 29.6657 159.31 29.6657C159.154 29.6657 159.091 29.6657 158.741 29.6346C156.75 29.438 153.396 29.3759 152.732 29.3759C151.499 29.3759 149.947 29.4432 148.307 29.5415C145.621 29.7071 144.195 29.8364 141.316 30.2607C141.096 30.2917 140.652 30.39 140.302 30.4573C140.114 30.4883 139.952 30.5246 139.795 30.5246C139.638 30.5246 139.482 30.4573 139.257 30.3279C138.531 29.8726 138.055 29.3501 138.055 29.1845C138.055 29.0551 138.181 28.9879 138.337 28.9568C139.445 28.8275 140.521 28.7292 142.037 28.5636C144.184 28.3359 146.556 28.1704 148.045 28.0721C148.045 27.2908 148.077 26.5043 148.077 24.8073C146.593 24.9366 145.072 25.1022 143.588 25.3298H143.432V25.3247ZM154.122 5.59606C149.634 5.92202 145.046 6.1859 140.114 6.67226C140.396 6.96718 140.589 7.32419 140.589 7.71741C140.589 8.01233 140.527 8.43661 140.464 9.67837C143.944 9.35241 146.948 9.12475 149.921 8.86088C151.374 8.73153 153.145 8.63322 153.845 8.63322C154.258 7.68637 154.665 6.34629 154.665 5.95307C154.665 5.69437 154.54 5.59606 154.253 5.59606H154.127H154.122Z" fill="#F3F4F5"/>
</g>
<defs>
<clipPath id="clip0_2973_1161">
<rect width="46" height="48" fill="white"/>
</clipPath>
<clipPath id="clip1_2973_1161">
<rect width="98" height="44" fill="white" transform="translate(62 2)"/>
</clipPath>
</defs>
</svg>
