<svg width="306" height="306" viewBox="0 0 306 306" fill="none" xmlns="http://www.w3.org/2000/svg">
<g clip-path="url(#clip0_2639_712)">
<circle opacity="0.75" cx="153" cy="153" r="153" fill="white"/>
<path opacity="0.75" d="M258.187 90.9594C257.966 66.8087 245.368 43.3983 222.96 30.4549C200.17 17.2818 173.087 18.32 151.92 30.7953C130.915 18.9157 104.368 18.1328 81.9602 31.0846C59.17 44.2578 46.5296 68.2554 46.7336 92.8486C25.9495 105.103 12 127.73 12 153.625C12 179.972 26.4426 202.931 47.8132 215.041C48.0342 239.191 60.6321 262.602 83.0398 275.545C105.83 288.718 132.913 287.68 154.08 275.205C175.085 287.084 201.632 287.867 224.04 274.915C246.83 261.742 259.47 237.745 259.266 213.151C280.05 200.88 294 178.253 294 152.358C294 126.011 279.557 103.052 258.187 90.9424V90.9594ZM153 153.098C153 153.098 152.949 153.072 152.915 153.055C152.915 153.021 152.915 152.996 152.915 152.962C152.941 152.945 152.966 152.928 152.992 152.911C153.017 152.928 153.043 152.936 153.077 152.953C153.077 152.987 153.077 153.013 153.077 153.047C153.051 153.064 153.025 153.081 153 153.098Z" fill="white"/>
</g>
<defs>
<clipPath id="clip0_2639_712">
<rect width="306" height="306" fill="white"/>
</clipPath>
</defs>
</svg>
